<svg fill="#000000" xmlns="http://www.w3.org/2000/svg"  viewBox="0 0 50 50" width="500px" height="500px"><path fill="none" stroke="#000000" stroke-miterlimit="10" stroke-width="2" d="M25 3A22 22 0 1 0 25 47A22 22 0 1 0 25 3Z"/><path d="M19 18.5c-.3-.4-.7-.6-1.3-.6-.5 0-1 .1-1.4.4-.5.3-.7.7-.7 1.2 0 .2 0 .4.1.5 0-.5.2-.9.8-1.2.6-.4 1.1-.5 1.6-.5C18.3 18.3 18.6 18.4 19 18.5zM18.5 24.4c.4 0 .7-.2 1-.5s.5-.7.5-1c0-.4-.2-.7-.5-1-.3-.3-.7-.5-1-.5-.4 0-.7.2-1 .5-.3.3-.5.7-.5 1 0 .4.2.7.5 1C17.8 24.2 18.1 24.4 18.5 24.4zM19.2 22c.3 0 .4.1.4.4 0 .2-.1.4-.4.4s-.4-.1-.4-.4C18.8 22.1 18.9 22 19.2 22z"/><path d="M25,3C12.9,3,3,12.9,3,25c0,9.7,6.2,17.9,14.9,20.8c-0.3-1.2-0.7-3.4-1.4-6.6c-1.6-7-2.7-12.3-3.2-15.9c-0.1-0.7-0.2-1.4-0.2-2.2c0-2.3,0.6-4.1,1.8-5.4c1.2-1.3,3-2.1,5.3-2.4c-0.7-0.2-1.5-0.3-2.7-0.3c-0.8,0-2.1,0.1-3.7,0.3c0-0.2,0.1-0.4,0.3-0.5s0.4-0.2,0.6-0.3c0.2,0,0.5-0.1,0.8-0.1c0.3,0,0.5-0.1,0.6-0.1c0.6-0.1,1.3-0.4,2.2-0.8c-1.3-0.4-2.5-0.6-3.5-0.6c-0.2,0-0.5,0-1,0.1c-0.4,0.1-0.7,0.1-1,0.1l-0.3,0l1-1.4c0.1,0,0.5-0.1,1-0.2c0.5-0.1,1-0.2,1.2-0.2c1.4,0,2.9,0.4,4.7,1.3c1.8,0.9,3.1,1.8,3.9,2.9c1.3,0.3,2.4,0.8,3.2,1.5c1,0.9,1.8,2.3,2.6,4.1c0.7,1.8,1.1,3.5,1.1,4.9c0,0.4-0.1,0.8-0.2,1.4c0.3-0.1,1-0.3,2-0.6s1.9-0.6,2.7-0.8s1.4-0.3,1.9-0.3c0.5,0,1,0.1,1.5,0.2s0.8,0.4,0.8,0.8c0,0.6-1.4,1.4-4.3,2.5s-4.7,1.6-5.6,1.6c-0.2,0-0.6,0-1.1-0.1c-0.5-0.1-0.9-0.1-1.2-0.1c-0.1,0-0.3,0-0.4,0s-0.3,0-0.4,0c-0.1,0-0.2,0-0.3,0c-0.1,0-0.2,0.1-0.2,0.1c0,0.1-0.1,0.2-0.1,0.3c0,0.7,0.5,1.3,1.4,1.7s1.8,0.6,2.6,0.6c0.8,0,1.9-0.1,3.3-0.3c1.4-0.2,2.6-0.3,3.3-0.3c0.5,0,0.8,0.2,0.8,0.6c0,0.6-0.9,1.2-2.8,1.7c-1.8,0.5-3.2,0.8-4.1,0.8c-1.7,0-3.8-0.7-6.6-2c-0.1,0.4-0.1,0.9-0.1,1.3c0,1.6,0.4,3.4,1.2,5.5h0.2c0.4-0.1,0.7,0.1,0.7,0.5c2.1-1.6,3.6-2.4,4.3-2.4c0.5,0,0.8,1.4,0.8,4.1c0,1.5-0.2,2.2-0.7,2.2c-0.7,0-1.9-0.4-3.8-1.2c0.3,0.6,0.8,1.4,1.5,2.5c0.7,1,1.2,1.7,1.4,2.2c9.8-2.3,17-11,17-21.4C47,12.9,37.1,3,25,3z"/><path d="M27.3 22c0 .3.1.6.4.9s.6.4.9.4c.4 0 .7-.1.9-.4.3-.3.4-.6.4-.9 0-.4-.1-.7-.4-.9-.3-.3-.6-.4-.9-.4-.3 0-.6.1-.9.4S27.3 21.7 27.3 22zM29.1 21.3c.2 0 .4.1.4.3 0 .2-.1.4-.4.4-.2 0-.3-.1-.3-.4C28.8 21.4 28.9 21.3 29.1 21.3zM27.8 17.4c-.9 0-1.4.4-1.6 1.1.2-.4.8-.6 1.6-.6.4 0 .9.1 1.5.4C29.1 17.8 28.5 17.4 27.8 17.4z"/></svg>